# xmcd CD database file
#
# Track frame offsets:
#	150
#	15099
#	30499
#	54688
#	69233
#	85072
#	95239
#	111683
#	125805
#	147192
#	163581
#	178230
#	193175
#	208055
#	222363
#	233735
#	244797
#	263116
#	273743
#	284913
#	313310
#
# Disc length: 4362 seconds
#
# Revision: 0
# Processed by: cddbd v1.5PL3 Copyright (c) Steve Scherf et al.
# Submitted via: CDex 1.51
#
DISCID=4f110815
DTITLE=Blues From The Slavema - Blues From The Slavema
DYEAR=1900
DGENRE=Blues
TTITLE0=Rory Block/ The Spirit Returns
TTITLE1=Marcia Ball/ Blue House
TTITLE2=Marcia Ball/ I'd Rather Go Blind
TTITLE3=Rory Block/ Joilet Bound
TTITLE4=Rory Block/ Lovin Whiskey
TTITLE5=Rory Block/ Big Road Blues
TTITLE6=Irma Thomas/ Sweet Touch of Love
TTITLE7=Irma Thomas/ Noboy Want to Hear a Working Man
TTITLE8=Irma Thomas/ O Holy Night
TTITLE9=Irma Thomas/ Hip Shaking Mama
TTITLE10=Alberta Hunter/ I Got Myself a Working Man
TTITLE11=Alberta Hunter/ Beale St. Blues
TTITLE12=Lucille Bogan/ Stew Meat Blues
TTITLE13=Ethel Waters/ Stormy Weather
TTITLE14=Dina Washington/ What a difference a day make
TTITLE15=Billie Holiday/ What a difference a day make
TTITLE16=Unknown/ You don't know what love is
TTITLE17=Albert Ammons/ Bedroom Blues
TTITLE18=Dinah Washington/ Come Rain or come Shine
TTITLE19=Marcia Ball/ St, Gabriel
TTITLE20=Marcia Ball/ Yield not to Temptation
EXTD=
EXTT0=
EXTT1=
EXTT2=
EXTT3=
EXTT4=
EXTT5=
EXTT6=
EXTT7=
EXTT8=
EXTT9=
EXTT10=
EXTT11=
EXTT12=
EXTT13=
EXTT14=
EXTT15=
EXTT16=
EXTT17=
EXTT18=
EXTT19=
EXTT20=
PLAYORDER=
